<?xml version="1.0" encoding="UTF-8"?>
<svg xmlns="http://www.w3.org/2000/svg" xmlns:xlink="http://www.w3.org/1999/xlink" width="1235" height="650">
<defs>
<path id="s" transform="scale(20)" fill="#fff" d="M0,-1 L0.58779,0.80902 L-0.95106,-0.30902 L0.95106,-0.30902 L-0.58779,0.80902z"/>
<g id="s7">
	<g id="s6">
		<use xlink:href="#s" x="37" y="35"/>
		<use xlink:href="#s" x="107" y="35"/>
		<use xlink:href="#s" x="177" y="35"/>
		<use xlink:href="#s" x="247" y="35"/>
		<use xlink:href="#s" x="317" y="35"/>
		<use xlink:href="#s" x="387" y="35"/>
	</g>
	<use xlink:href="#s" x="457" y="35"/>
</g>
<g id="u">
	<use xlink:href="#s7"/>
	<use xlink:href="#s6" x="35" y="40"/>
	<use xlink:href="#s7" y="80"/>
	<use xlink:href="#s6" x="35" y="120"/>
	<use xlink:href="#s7" y="160"/>
	<use xlink:href="#s6" x="35" y="200"/>
	<use xlink:href="#s7" y="240"/>
	<use xlink:href="#s6" x="35" y="280"/>
</g>
</defs>
<rect width="1235" height="650" fill="#B22234"/>
<path stroke="#FFF" stroke-width="50" d="M0,75H1235M0,175H1235M0,275H1235M0,375H1235M0,475H1235M0,575H1235"/>
<rect width="494" height="350" fill="#3C3B6E"/>
<use xlink:href="#u"/>
</svg>